# xmcd
#
# Track frame offsets:
#	150
#	4446
#	22090
#	39236
#	56625
#	73437
#	86071
#	99326
#	117125
#	130768
#	143223
#	157004
#
# Disc length: 2284 seconds
#
# Revision: 1
# Processed by: cddbd v1.5.2PL0 Copyright (c) Steve Scherf et al.
# Submitted via: audiograbber 1.82.01
#
DISCID=a708ea0c
DTITLE=Όναρ - ΤΙΠΟΤΑ ΔΕΝ ΕΙΝΑΙ ΟΠΩΣ ΦΑΙΝΕΤΑΙ
DYEAR=2007
DGENRE=Rock
TTITLE0=Τίποτα δεν είναι όπως φαίνεται
TTITLE1=Αν μ' αγαπάς
TTITLE2=Δεν πεθαίνω έτσι εύκολα
TTITLE3=Περασμένα μεσάνυχτα
TTITLE4=Κασέτα
TTITLE5=Πανιά ανοιγμένα
TTITLE6=Ό, που και να πας
TTITLE7=Φωτεινό αστέρι
TTITLE8=Σε κουβαλώ
TTITLE9=Στάχτη στα μπαλκόνια
TTITLE10=Αδιέξοδο με θέα
TTITLE11=Μοιάζουμε πολύ
EXTD=
EXTT0=
EXTT1=
EXTT2=
EXTT3=
EXTT4=
EXTT5=
EXTT6=
EXTT7=
EXTT8=
EXTT9=
EXTT10=
EXTT11=
PLAYORDER=
